<svg xmlns="http://www.w3.org/2000/svg" version="1.1" xmlns:xlink="http://www.w3.org/1999/xlink" xmlns:svgjs="http://svgjs.dev/svgjs" width="349.6" height="128"><g><svg viewBox="0 0 395.52 107.8565898511284" height="107.8565898511284" width="349.6" xmlns="http://www.w3.org/2000/svg" version="1.1" xmlns:xlink="http://www.w3.org/1999/xlink" xmlns:svgjs="http://svgjs.com/svgjs" x="0" y="10.071705074435798" viewbox="0 0 349.6 128"><g><svg viewBox="0 0 395.52 107.8565898511284" height="107.8565898511284" width="395.52"><g transform="matrix(1,0,0,1,0,66.65969951978263)"><svg viewBox="0 0 395.52 41.19689033134576" height="41.19689033134576" width="395.52"><g><svg viewBox="0 0 395.52 41.19689033134576" height="41.19689033134576" width="395.52"><g><svg viewBox="0 0 395.52 41.19689033134576" height="41.19689033134576" width="395.52"><g transform="matrix(1,0,0,1,0,0)"><svg width="395.52" viewBox="4.199999809265137 -33.08000183105469 323.42999267578125 33.69000244140625" height="41.19689033134576" data-palette-color="#000000"><path d="M20.36 0.2L14.7-12.62Q13.96-12.57 13.13-12.57 12.3-12.57 10.67-12.7L10.67-12.7 10.67 0 4.2 0 4.2-32.64Q7.62-33.08 12.6-33.08L12.6-33.08Q19.38-33.08 22.72-30.58 26.05-28.08 26.05-22.85L26.05-22.85Q26.05-18.8 23-15.92L23-15.92Q22-14.99 20.7-14.31L20.7-14.31 25.68-3.81Q27.15-0.56 27.93 0.05L27.93 0.05 27.81 0.17Q25.44-0.22 20.36 0.2L20.36 0.2ZM13.06-27.32L13.06-27.32Q11.82-27.32 10.67-27.2L10.67-27.2 10.67-17.87Q11.87-17.7 13.48-17.7 15.09-17.7 16.19-17.98 17.29-18.26 18.09-18.85L18.09-18.85Q19.82-20.14 19.82-22.73 19.82-25.32 18.02-26.37L18.02-26.37Q16.33-27.32 13.06-27.32ZM39.69-5.86L49.66-5.86Q51.17-5.86 51.76-6.15L51.76-6.15 51.85-6.13 51.61 0 33.32 0 33.32-32.64Q33.98-32.59 34.79-32.57L34.79-32.57 36.5-32.52Q38.21-32.47 40.21-32.47L40.21-32.47Q45.8-32.47 51.27-32.67L51.27-32.67Q51-30.52 51-26.93L51-26.93Q51-26.54 51.05-26.34L51.05-26.34 51-26.27Q49.73-26.64 47.39-26.64L47.39-26.64 39.69-26.64 39.69-20.41 45.48-20.41Q48.17-20.41 48.7-20.56L48.7-20.56 48.78-14.53Q47.6-14.65 45.75-14.65L45.75-14.65 39.69-14.65 39.69-5.86ZM72.92-33.08L72.92-33.08Q77.49-33.08 80.71-31.49L80.71-31.49 80.71-24.02 80.66-23.97Q79.29-26.07 74.9-26.76L74.9-26.76Q73.6-26.98 71.63-26.98 69.65-26.98 67.74-26.23 65.84-25.49 64.62-24.12L64.62-24.12Q62.25-21.46 62.25-16.53L62.25-16.53Q62.25-10.79 65.25-7.98L65.25-7.98Q67.74-5.64 71.85-5.64L71.85-5.64Q76.48-5.64 79.37-7.62L79.37-7.62Q80.41-8.33 81.15-9.38L81.15-9.38 81.22-9.33 81.22-2.49Q77.49 0.61 71.16 0.61L71.16 0.61Q63.72 0.61 59.49-4.13L59.49-4.13Q55.44-8.64 55.44-16.09L55.44-16.09Q55.44-23.97 59.88-28.52L59.88-28.52Q64.37-33.08 72.92-33.08ZM88.13 0L88.13-32.57Q90.57-32.47 91.08-32.47L91.08-32.47 92.84-32.47Q94.13-32.47 94.91-32.67L94.91-32.67 94.89 0 88.13 0ZM103.6 0L103.6-32.64Q107-33.08 110.56-33.08L110.56-33.08Q117.2-33.08 120.66-29.97 124.11-26.86 124.11-20.65L124.11-20.65Q124.11-15.11 120.33-11.89L120.33-11.89Q116.79-8.86 111.22-8.86L111.22-8.86Q110.59-8.86 109.83-8.94L109.83-8.94 109.83 0 103.6 0ZM111.29-27.2L111.29-27.2Q110.56-27.2 109.83-27.15L109.83-27.15 109.83-14.31Q110.61-14.21 111.73-14.21 112.86-14.21 114.08-14.69 115.3-15.16 116.13-16.02L116.13-16.02Q117.86-17.8 117.86-20.7L117.86-20.7Q117.86-27.2 111.29-27.2ZM135.49-5.86L145.45-5.86Q146.96-5.86 147.55-6.15L147.55-6.15 147.64-6.13 147.4 0 129.11 0 129.11-32.64Q129.77-32.59 130.58-32.57L130.58-32.57 132.29-32.52Q134-32.47 136-32.47L136-32.47Q141.59-32.47 147.06-32.67L147.06-32.67Q146.79-30.52 146.79-26.93L146.79-26.93Q146.79-26.54 146.84-26.34L146.84-26.34 146.79-26.27Q145.52-26.64 143.18-26.64L143.18-26.64 135.49-26.64 135.49-20.41 141.27-20.41Q143.96-20.41 144.49-20.56L144.49-20.56 144.57-14.53Q143.4-14.65 141.54-14.65L141.54-14.65 135.49-14.65 135.49-5.86ZM187.78-20.07L187.85-14.04Q186.68-14.16 184.82-14.16L184.82-14.16 177.42-14.16 177.42 0 170.73 0 170.73-32.64Q171.39-32.59 172.25-32.57L172.25-32.57 174.05-32.52Q175.91-32.47 177.91-32.47L177.91-32.47Q183.92-32.47 189.39-32.67L189.39-32.67Q189.12-30.52 189.12-26.93L189.12-26.93Q189.12-26.54 189.17-26.34L189.17-26.34 189.12-26.27Q187.82-26.64 185.5-26.64L185.5-26.64 177.42-26.64 177.42-19.92 184.55-19.92Q187.24-19.92 187.78-20.07L187.78-20.07ZM196.44 0L196.44-32.57Q198.88-32.47 199.39-32.47L199.39-32.47 201.15-32.47Q202.45-32.47 203.23-32.67L203.23-32.67 203.2 0 196.44 0ZM218.97 0L212.6 0Q212.75-0.83 212.75-1.81L212.75-1.81 212.75-32.47 217.63-32.47 230.57-12.11 230.57-30.81Q230.57-32.15 230.32-32.47L230.32-32.47 236.92-32.47Q236.79-31.49 236.79-30.32L236.79-30.32 236.79 0 231.72 0 218.97-19.56 218.97 0ZM253.47 0.61L253.47 0.61Q249.51 0.61 246.02-0.02L246.02-0.02 246.02-32.69Q249.24-33.08 253.5-33.08 257.76-33.08 261.22-31.92 264.67-30.76 266.99-28.61L266.99-28.61Q271.68-24.32 271.68-16.58L271.68-16.58Q271.68-7.91 266.45-3.42L266.45-3.42Q261.77 0.61 253.47 0.61ZM252.37-27.1L252.37-5.35Q253.95-5.05 255.54-5.05 257.13-5.05 258.96-5.68 260.79-6.3 262.13-7.62L262.13-7.62Q265.01-10.4 265.01-15.72L265.01-15.72Q265.01-24.46 258.64-26.46L258.64-26.46Q256.54-27.12 253.78-27.12L253.78-27.12 253.12-27.12Q252.76-27.12 252.37-27.1L252.37-27.1ZM285.23-5.86L295.19-5.86Q296.7-5.86 297.29-6.15L297.29-6.15 297.38-6.13 297.14 0 278.85 0 278.85-32.64Q279.51-32.59 280.32-32.57L280.32-32.57 282.03-32.52Q283.74-32.47 285.74-32.47L285.74-32.47Q291.33-32.47 296.8-32.67L296.8-32.67Q296.53-30.52 296.53-26.93L296.53-26.93Q296.53-26.54 296.58-26.34L296.58-26.34 296.53-26.27Q295.26-26.64 292.92-26.64L292.92-26.64 285.23-26.64 285.23-20.41 291.01-20.41Q293.7-20.41 294.24-20.56L294.24-20.56 294.31-14.53Q293.14-14.65 291.28-14.65L291.28-14.65 285.23-14.65 285.23-5.86ZM320.06 0.2L314.4-12.62Q313.67-12.57 312.84-12.57 312.01-12.57 310.37-12.7L310.37-12.7 310.37 0 303.9 0 303.9-32.64Q307.32-33.08 312.3-33.08L312.3-33.08Q319.09-33.08 322.42-30.58 325.75-28.08 325.75-22.85L325.75-22.85Q325.75-18.8 322.7-15.92L322.7-15.92Q321.7-14.99 320.4-14.31L320.4-14.31 325.39-3.81Q326.85-0.56 327.63 0.05L327.63 0.05 327.51 0.17Q325.14-0.22 320.06 0.2L320.06 0.2ZM312.76-27.32L312.76-27.32Q311.52-27.32 310.37-27.2L310.37-27.2 310.37-17.87Q311.57-17.7 313.18-17.7 314.79-17.7 315.89-17.98 316.99-18.26 317.79-18.85L317.79-18.85Q319.53-20.14 319.53-22.73 319.53-25.32 317.72-26.37L317.72-26.37Q316.03-27.32 312.76-27.32Z" opacity="1" transform="matrix(1,0,0,1,0,0)" fill="#000000" class="undefined-text-0" data-fill-palette-color="primary" id="text-0"></path></svg></g></svg></g></svg></g></svg></g><g transform="matrix(1,0,0,1,158.0811061335217,0)"><svg viewBox="0 0 79.35778773295661 56.93410243791985" height="56.93410243791985" width="79.35778773295661"><g><svg xmlns="http://www.w3.org/2000/svg" xmlns:xlink="http://www.w3.org/1999/xlink" version="1.1" x="0" y="0" viewBox="81.30000305175781 209.5 834.5 598.7000122070312" style="enable-background:new 0 0 1000 1000;" xml:space="preserve" height="56.93410243791985" width="79.35778773295661" class="icon-icon-0" data-fill-palette-color="accent" id="icon-0"><g fill="#000000" data-fill-palette-color="accent"><g fill="#000000" data-fill-palette-color="accent"><g fill="#000000" data-fill-palette-color="accent"><g fill="#000000" data-fill-palette-color="accent"><path d="M246.8 699.1L246.8 699.1c0-2-0.1-4.9 0-8.6 0.1-7.4 0.6-18.1 2.1-30.9 0.7-6.4 1.7-13.3 2.9-20.6 1.3-7.3 2.8-14.9 4.8-22.8 1.9-7.8 4.2-15.9 6.9-23.9 2.7-8 5.8-16.1 9.4-24 3.6-7.9 7.5-15.5 11.9-22.9 4.3-7.3 9.1-14.2 14.1-20.6 5-6.4 10.3-12.3 15.6-17.6 5.3-5.3 10.8-9.9 16-13.9 5.2-4 10.3-7.3 14.8-10.2 2.3-1.3 4.5-2.7 6.5-3.8 2.1-1.1 3.9-2.2 5.7-3 1.7-0.9 3.3-1.6 4.7-2.3 1.4-0.6 2.5-1.1 3.5-1.6 1.7-0.7 2.7-1.2 2.9-1.3-0.2 0.1-1.3 0.4-3 1-1 0.3-2.2 0.7-3.7 1.2-1.4 0.5-3.1 1.1-4.9 1.8-1.8 0.7-3.8 1.5-6 2.4-2.2 0.9-4.5 2-7 3.1-4.9 2.4-10.4 5.2-16.2 8.8-5.8 3.5-11.8 7.7-17.9 12.6-6.1 4.8-12.2 10.4-18.2 16.5-5.9 6.1-11.7 12.9-17.1 20.1-5.4 7.2-10.4 14.9-15.1 22.8-4.6 7.9-8.8 16.1-12.6 24.3-3.8 8.2-7.1 16.5-10 24.5-2.9 8.1-5.4 16-7.6 23.6-2.2 7.6-3.9 14.8-5.4 21.6-3 13.5-4.7 24.9-5.7 33-0.5 4-0.8 7.3-1 9.5 0 0.4-0.1 0.8-0.1 1.2h-58.3c0-166.5 152.1-301.4 339.8-301.4s339.8 134.9 339.8 301.4H246.8z" fill="#000000" data-fill-palette-color="accent"></path></g></g><g fill="#000000" data-fill-palette-color="accent"><g fill="#000000" data-fill-palette-color="accent"><path d="M892.5 764.2H104.6c-12.9 0-23.3-10.4-23.3-23.3 0-12.9 10.4-23.3 23.3-23.3h787.9c12.9 0 23.3 10.4 23.3 23.3C915.8 753.8 905.4 764.2 892.5 764.2z" fill="#000000" data-fill-palette-color="accent"></path></g></g><g fill="#000000" data-fill-palette-color="accent"><g fill="#000000" data-fill-palette-color="accent"><circle cx="496.3" cy="357.3" r="32.7" fill="#000000" data-fill-palette-color="accent"></circle></g></g></g><g fill="#000000" data-fill-palette-color="accent"><path d="M888.4 808.2h-459c-8.3 0-15-6.7-15-15s6.7-15 15-15h459c8.3 0 15 6.7 15 15S896.7 808.2 888.4 808.2z" fill="#000000" data-fill-palette-color="accent"></path></g><path d="M664.9 277.6c7 19.4 5.2 36-3 47.2-7.4 11.3-21.2 17.2-20.5 17.3-0.8-0.1 5.1-6.9 4.7-19.1 0.3-12.1-5.8-29.6-12.8-49-7-19.4-5.2-36 3-47.2 7.4-11.3 21.2-17.2 20.5-17.3 0.8 0.1-5.1 6.9-4.7 19.1C651.8 240.7 657.9 258.2 664.9 277.6z" fill="#000000" data-fill-palette-color="accent"></path><path d="M670.3 343.8c-7.1 19.3-5.4 35.9 2.7 47.2 7.4 11.3 21.2 17.3 20.4 17.4 0.8-0.1-5.1-7-4.6-19.2-0.2-12.1 5.9-29.6 13.1-49 7.1-19.3 5.4-35.9-2.7-47.2-7.4-11.3-21.2-17.3-20.4-17.4-0.8 0.1 5.1 7 4.6 19.2C683.6 306.9 677.4 324.4 670.3 343.8z" fill="#000000" data-fill-palette-color="accent"></path><path d="M143.2 541.2c8.7 17.4 8.8 33.2 2.3 44.7-5.8 11.4-18.1 18.5-17.4 18.5-0.7 0 4.1-7.1 2.3-18.5-1-11.4-8.7-27.2-17.4-44.7s-8.8-33.2-2.3-44.7c5.8-11.4 18.1-18.5 17.4-18.5 0.7 0-4.1 7.1-2.3 18.5C126.9 508 134.5 523.8 143.2 541.2z" fill="#000000" data-fill-palette-color="accent"></path></g></svg></g></svg></g><g></g></svg></g></svg></g></svg>