<svg xmlns="http://www.w3.org/2000/svg" version="1.1" xmlns:xlink="http://www.w3.org/1999/xlink" xmlns:svgjs="http://svgjs.dev/svgjs" width="440" height="252.12"><g><svg viewBox="0 0 395.52 127.99087586909508" height="127.99087586909508" width="440" xmlns="http://www.w3.org/2000/svg" version="1.1" xmlns:xlink="http://www.w3.org/1999/xlink" xmlns:svgjs="http://svgjs.com/svgjs" x="0" y="62.06456206545246" viewbox="0 0 440 252.12"><g><svg viewBox="0 0 397.4975999999999 128.63083024844053" height="127.99087586909508" width="395.52"><g><rect width="397.4975999999999" height="3.9397924394923485" x="0" y="70.68984962740304" fill="#ffffff" opacity="1" stroke-width="0" stroke="transparent" fill-opacity="1" class="rect-o-0" data-fill-palette-color="secondary" rx="1%" id="o-0" data-palette-color="#ffffff"></rect></g><g transform="matrix(1,0,0,1,0.9887999999999693,84.94323484043557)"><svg viewBox="0 0 395.52 43.68759540800496" height="43.68759540800496" width="395.52"><g><svg viewBox="0 0 395.52 43.68759540800496" height="43.68759540800496" width="395.52"><g><svg viewBox="0 0 395.52 43.68759540800496" height="43.68759540800496" width="395.52"><g transform="matrix(1,0,0,1,0,0)"><svg width="395.52" viewBox="4.25 -35.099998474121094 322.2699890136719 35.599998474121094" height="43.68759540800496" data-palette-color="#ffffff"><path d="M17.9-13.25L8.1-13.25 8.1 0 4.25 0 4.25-34.6 17.05-34.6Q22.55-34.6 25.33-32.05 28.1-29.5 28.1-24.1L28.1-24.1Q28.1-16.1 21.75-14.05L21.75-14.05 28.4 0 24.15 0 17.9-13.25ZM8.1-16.65L17.1-16.65Q24.15-16.65 24.15-23.93 24.15-31.2 17.05-31.2L17.05-31.2 8.1-31.2 8.1-16.65ZM56.1 0L35.05 0 35.05-34.6 56.1-34.6 56.1-31.2 38.9-31.2 38.9-19.25 53.1-19.25 53.1-15.9 38.9-15.9 38.9-3.4 56.1-3.4 56.1 0ZM83.05-3.85L83.2-0.55Q78.05 0.5 73.95 0.5 69.85 0.5 67.32-0.63 64.8-1.75 63.42-4.13 62.05-6.5 61.52-9.58 61-12.65 61-17.25 61-21.85 61.52-24.98 62.05-28.1 63.42-30.5 64.8-32.9 67.3-34 69.8-35.1 73.8-35.1 77.8-35.1 83.2-34L83.2-34 83.05-30.75Q78-31.65 74.05-31.65L74.05-31.65Q68.55-31.65 66.77-28.38 65-25.1 65-17.2L65-17.2Q65-13.25 65.32-10.85 65.65-8.45 66.6-6.53 67.55-4.6 69.37-3.78 71.2-2.95 74.72-2.95 78.25-2.95 83.05-3.85L83.05-3.85ZM93.34 0L89.49 0 89.49-34.6 93.34-34.6 93.34 0ZM114.44-11.65L114.44-11.65 105.64-11.65 105.64 0 101.79 0 101.79-34.6 114.44-34.6Q120.09-34.6 122.79-31.85 125.49-29.1 125.49-23.45L125.49-23.45Q125.49-11.65 114.44-11.65ZM105.64-31.2L105.64-15.05 114.39-15.05Q121.54-15.05 121.54-23.45L121.54-23.45Q121.54-27.45 119.84-29.33 118.14-31.2 114.39-31.2L114.39-31.2 105.64-31.2ZM152.49 0L131.44 0 131.44-34.6 152.49-34.6 152.49-31.2 135.29-31.2 135.29-19.25 149.49-19.25 149.49-15.9 135.29-15.9 135.29-3.4 152.49-3.4 152.49 0ZM173.93 0L170.08 0 170.08-34.6 190.78-34.6 190.78-31.2 173.93-31.2 173.93-17.7 188.18-17.7 188.18-14.3 173.93-14.3 173.93 0ZM200.23 0L196.38 0 196.38-34.6 200.23-34.6 200.23 0ZM212.53 0L208.68 0 208.68-34.6 215.88-34.6 229.13-3.4 230.18-3.4 230.18-34.6 233.98-34.6 233.98 0 226.93 0 213.48-31.2 212.53-31.2 212.53 0ZM254.83 0L254.83 0 242.48 0 242.48-34.6 254.83-34.6Q263.28-34.6 266.03-27.9L266.03-27.9Q267.63-24.05 267.63-17.8L267.63-17.8Q267.63-4.75 261.13-1.35L261.13-1.35Q258.53 0 254.83 0ZM263.68-17.8L263.68-17.8Q263.68-27.75 259.23-30.2L259.23-30.2Q257.43-31.2 254.83-31.2L254.83-31.2 246.33-31.2 246.33-3.4 254.83-3.4Q263.68-3.4 263.68-17.8ZM295.77 0L274.72 0 274.72-34.6 295.77-34.6 295.77-31.2 278.57-31.2 278.57-19.25 292.77-19.25 292.77-15.9 278.57-15.9 278.57-3.4 295.77-3.4 295.77 0ZM316.02-13.25L306.22-13.25 306.22 0 302.37 0 302.37-34.6 315.17-34.6Q320.67-34.6 323.44-32.05 326.22-29.5 326.22-24.1L326.22-24.1Q326.22-16.1 319.87-14.05L319.87-14.05 326.52 0 322.27 0 316.02-13.25ZM306.22-16.65L315.22-16.65Q322.27-16.65 322.27-23.93 322.27-31.2 315.17-31.2L315.17-31.2 306.22-31.2 306.22-16.65Z" opacity="1" transform="matrix(1,0,0,1,0,0)" fill="#ffffff" class="undefined-text-0" data-fill-palette-color="primary" id="text-0"></path></svg></g></svg></g></svg></g></svg></g><g transform="matrix(1,0,0,1,150.01850503224182,0)"><svg viewBox="0 0 97.46058993551631 60.376256853862856" height="60.376256853862856" width="97.46058993551631"><g><svg xmlns="http://www.w3.org/2000/svg" xmlns:xlink="http://www.w3.org/1999/xlink" version="1.1" x="8" y="0" viewBox="164.5 244.99998474121094 688.0999755859375 510" style="enable-background:new 0 0 1000 1000;" xml:space="preserve" height="60.376256853862856" width="81.46058993551631" class="icon-icon-0" data-fill-palette-color="accent" id="icon-0"><g fill="#ffffff" data-fill-palette-color="accent"><path d="M813.7 711.8l-26.9-4.8c0.3-4.7 0.5-9.8 0.5-15.4 0.1-12.9-0.8-27.9-3.3-43.8-1.3-7.9-3-16-5.3-24.1-2.3-8.1-5-16.2-8.3-24.1-3.3-7.9-7.1-15.5-11.4-22.7-4.3-7.2-9-13.9-14-20.1-5-6.1-10.2-11.7-15.4-16.6-5.2-4.9-10.5-9.3-15.5-12.9-5-3.7-9.8-6.9-14.1-9.4-1.1-0.7-2.1-1.3-3.1-1.9-1-0.6-2-1.1-3-1.7-1.9-1.1-3.6-2-5.3-2.8-1.6-0.8-3-1.5-4.3-2.2-1.3-0.6-2.3-1.1-3.2-1.5-1.6-0.8-2.6-1.2-2.7-1.2 0.1 0.1 1 0.6 2.5 1.5 0.8 0.5 1.8 1.1 3 1.9 1.2 0.7 2.5 1.6 4 2.6 1.5 1 3.1 2.1 4.9 3.4 0.9 0.6 1.8 1.3 2.7 2 0.9 0.7 1.9 1.4 2.9 2.2 3.9 3 8.2 6.6 12.7 10.8 4.5 4.1 9 8.9 13.4 14.1 4.5 5.3 8.8 11.1 12.8 17.4 4 6.3 7.7 13.1 10.9 20.2 3.2 7.1 5.9 14.5 8.1 22.1 2.2 7.5 3.9 15.2 5.1 22.9 1.2 7.6 1.9 15.2 2.3 22.5 0.7 14.7-0.1 28.4-1.5 40-0.5 4.3-1.1 8.4-1.8 12.1L201.5 601.6C228.2 453.3 386.9 357.7 556 388.1 725 418.6 840.4 563.5 813.7 711.8z" fill="#ffffff" data-fill-palette-color="accent"></path><path d="M564.4 298.2c-21.2-3.8-41.5 10.3-45.3 31.5-3.8 21.2 10.3 41.5 31.5 45.3 21.2 3.8 41.5-10.3 45.3-31.5C599.7 322.3 585.6 302 564.4 298.2zM585.2 325.3c-1.6 9.1-10.3 15.1-19.4 13.5-9.1-1.6-15.1-10.3-13.5-19.4 1.6-9.1 10.3-15.1 19.4-13.5C580.8 307.5 586.8 316.2 585.2 325.3z" fill="#ffffff" data-fill-palette-color="accent"></path><path d="M841.6 755H175.5c-6.1 0-11-5-11-11l0 0c0-6.1 5-11 11-11h666.1c6.1 0 11 5 11 11l0 0C852.6 750.1 847.7 755 841.6 755z" fill="#ffffff" data-fill-palette-color="accent"></path><path d="M200.8 475.3c5.6 14.9 5.6 28.3 1.5 38-3.7 9.7-11.5 15.8-11.1 15.8-0.5 0 2.6-6 1.5-15.8-0.7-9.7-5.5-23.2-11.1-38-5.6-14.9-5.6-28.3-1.5-38 3.7-9.7 11.5-15.8 11.1-15.8 0.5 0-2.6 6-1.5 15.8C190.4 447 195.3 460.4 200.8 475.3z" fill="#ffffff" data-fill-palette-color="accent"></path><path d="M221.8 421.3c5.6 14.9 5.6 28.3 1.5 38-3.7 9.7-11.5 15.8-11.1 15.8-0.5 0 2.6-6 1.5-15.8-0.7-9.7-5.5-23.2-11.1-38-5.6-14.9-5.6-28.3-1.5-38 3.7-9.7 11.5-15.8 11.1-15.8 0.5 0-2.6 6-1.5 15.8C211.4 393 216.3 406.4 221.8 421.3z" fill="#ffffff" data-fill-palette-color="accent"></path><path d="M344.6 298.8c-5.6 14.9-5.6 28.3-1.5 38 3.7 9.7 11.5 15.8 11.1 15.8 0.5 0-2.6-6-1.5-15.8 0.7-9.7 5.5-23.2 11.1-38 5.6-14.9 5.6-28.3 1.5-38-3.7-9.7-11.5-15.8-11.1-15.8-0.5 0 2.6 6 1.5 15.8C355 270.5 350.2 283.9 344.6 298.8z" fill="#ffffff" data-fill-palette-color="accent"></path></g></svg></g></svg></g><g><rect width="73.48538503224184" height="3.9397924394923485" y="55.436464414370505" x="247.47909496775813" fill="#ffffff" data-fill-palette-color="secondary"></rect><rect width="73.48538503224184" height="3.9397924394923485" y="55.436464414370505" x="76.53311999999997" fill="#ffffff" data-fill-palette-color="secondary"></rect></g></svg></g></svg></g></svg>