<svg version="1.2" xmlns="http://www.w3.org/2000/svg" viewBox="0 0 440 253" width="440" height="253"><style>.a{fill:#ffa900}.b{fill:#ffa900;stroke:#000;stroke-width:0}</style><path fill-rule="evenodd" class="a" d="m19.6 173.3h-13.3v16.1h-5.2v-42.2h17.4q7.5 0 11.2 3.1 3.8 3.1 3.8 9.7 0 9.8-8.6 12.3l9 17.1h-5.8zm-13.3-4.1h12.2q9.6 0 9.6-8.9 0-8.9-9.6-8.9h-12.2zm65.2 20.4h-28.6v-42.3h28.6v4.2h-23.3v14.6h19.2v4h-19.2v15.3h23.3zm36.6-4.7l0.2 4q-7 1.3-12.5 1.3-5.6 0-9-1.4-3.5-1.3-5.3-4.2-1.9-2.9-2.6-6.7-0.7-3.7-0.7-9.4 0-5.6 0.7-9.4 0.7-3.8 2.6-6.7 1.8-3 5.2-4.3 3.4-1.4 8.9-1.4 5.4 0 12.7 1.4l-0.2 4q-6.8-1.1-12.2-1.1-7.5 0-9.9 4-2.4 4-2.4 13.6 0 4.8 0.5 7.8 0.4 2.9 1.7 5.2 1.3 2.4 3.8 3.4 2.4 1 7.2 1 4.8 0 11.3-1.1zm14 4.7h-5.2v-42.2h5.2zm28.7-14.3h-12v14.3h-5.2v-42.3h17.2q7.7 0 11.3 3.4 3.7 3.3 3.7 10.2 0 14.4-15 14.4zm-12-23.8v19.7h11.9q9.7 0 9.7-10.3 0-4.9-2.3-7.2-2.3-2.2-7.4-2.2zm63.7 38.1h-28.6v-42.3h28.6v4.2h-23.4v14.6h19.3v4h-19.3v15.3h23.4zm29.1 0h-5.2v-42.2h28.1v4.1h-22.9v16.5h19.3v4.1h-19.3zm35.7 0h-5.2v-42.2h5.2zm16.7 0h-5.2v-42.3h9.8l18 38.1h1.4v-38.1h5.2v42.3h-9.6l-18.3-38.1h-1.3zm57.5 0h-16.8v-42.3h16.8q11.5 0 15.2 8.2 2.2 4.7 2.2 12.4 0 15.9-8.9 20-3.5 1.7-8.5 1.7zm12-21.7q0-12.2-6-15.2-2.5-1.2-6-1.2h-11.6v33.9h11.6q12 0 12-17.5zm43.6 21.7h-28.6v-42.3h28.6v4.2h-23.4v14.6h19.3v4.1h-19.3v15.2h23.4zm27.5-16.1h-13.3v16.1h-5.2v-42.2h17.4q7.4 0 11.2 3.1 3.8 3.1 3.8 9.7 0 9.8-8.7 12.3l9.1 17.1h-5.8zm-13.3-4.1h12.2q9.6 0 9.6-8.9 0-8.9-9.6-8.9h-12.2z"/><path class="b" d="m0 133.4c0-0.6 0.5-1 1.1-1h437.8c0.6 0 1.1 0.4 1.1 1v1.9c0 0.6-0.5 1-1.1 1h-437.8c-0.6 0-1.1-0.4-1.1-1z"/><path class="a" d="m263.6 122.1h-87.2c-0.8 0-1.5-0.5-1.5-1.3 0-0.7 0.7-1.3 1.5-1.3h87.2c0.8 0 1.5 0.6 1.5 1.3 0 0.8-0.7 1.3-1.5 1.3z"/><path class="a" d="m260 117.1l-3.5-0.6q0-0.8 0-1.8c0-1.5-0.1-3.3-0.4-5.2q-0.3-1.4-0.7-2.8-0.4-1.5-1.1-2.9-0.6-1.4-1.5-2.6-0.8-1.3-1.8-2.4-1-1.1-2-2-1.1-0.8-2.1-1.5-1-0.6-1.8-1.1-0.2-0.1-0.4-0.2-0.2-0.1-0.4-0.2-0.4-0.2-0.7-0.3-0.3-0.2-0.6-0.3-0.2-0.1-0.4-0.2-0.3-0.1-0.3-0.1 0 0 0.3 0.2 0.1 0 0.4 0.2 0.2 0.1 0.5 0.3 0.3 0.2 0.6 0.4 0.2 0.1 0.4 0.2 0.2 0.1 0.4 0.3 0.8 0.5 1.6 1.3 0.9 0.7 1.8 1.6 0.9 1 1.7 2.1 0.8 1.1 1.4 2.3 0.6 1.3 1.1 2.6 0.4 1.4 0.6 2.7 0.3 1.4 0.3 2.7c0.1 1.7 0 3.3-0.2 4.7q-0.1 0.8-0.2 1.4l-73.2-11.8c3.5-17.5 24.3-28.8 46.4-25.2 22.2 3.6 37.3 20.7 33.8 38.2z"/><path class="a" d="m273.9 117.2h81.4v3.9h-81.4z"/><path class="a" d="m84.7 117.2h81.4v3.9h-81.4z"/><path class="a" d="m179.7 89.2c0.7 1.7 0.7 3.3 0.2 4.5-0.5 1.1-1.5 1.8-1.5 1.8-0.1 0 0.4-0.7 0.2-1.8-0.1-1.2-0.7-2.8-1.4-4.5-0.8-1.8-0.8-3.3-0.2-4.5 0.4-1.1 1.5-1.8 1.4-1.8 0.1 0-0.3 0.7-0.2 1.8 0.1 1.2 0.8 2.7 1.5 4.5z"/><path class="a" d="m182.4 82.8c0.8 1.8 0.8 3.4 0.2 4.5-0.5 1.2-1.5 1.9-1.4 1.9-0.1 0 0.3-0.7 0.2-1.9-0.1-1.1-0.8-2.7-1.5-4.5-0.7-1.7-0.7-3.3-0.2-4.4 0.5-1.2 1.5-1.9 1.5-1.9 0 0-0.4 0.7-0.2 1.9 0.1 1.1 0.7 2.7 1.4 4.4z"/><path class="a" d="m200 63.9c0.1-1.1-0.3-1.8-0.2-1.8-0.1 0 0.9 0.7 1.4 1.8 0.6 1.2 0.6 2.7-0.2 4.5-0.7 1.7-1.3 3.3-1.4 4.5-0.2 1.1 0.2 1.8 0.2 1.8 0 0-1-0.7-1.5-1.8-0.5-1.2-0.5-2.7 0.2-4.5 0.7-1.8 1.4-3.3 1.5-4.5z"/><path fill-rule="evenodd" class="a" d="m231.4 73.7c-0.5 2.5-3.1 4.1-5.9 3.7-2.8-0.5-4.6-2.9-4.1-5.4 0.5-2.5 3.1-4.1 5.9-3.7 2.8 0.5 4.6 2.9 4.1 5.4zm-3.1-4.5c-1.2-0.2-2.4 0.6-2.6 1.6-0.2 1.1 0.6 2.1 1.8 2.3 1.2 0.2 2.3-0.5 2.5-1.6 0.3-1-0.5-2.1-1.7-2.3z"/></svg>